<svg width="32" height="32" viewBox="0 0 32 32" fill="none" xmlns="http://www.w3.org/2000/svg">
<path d="M31.5236 1.85322e-07H26.3916C26.2973 -8.29668e-05 26.2051 0.0278178 26.1267 0.0801686C26.0483 0.132519 25.9872 0.206965 25.9511 0.294077C25.915 0.381188 25.9056 0.477047 25.9241 0.569511C25.9425 0.661975 25.988 0.746885 26.0547 0.813487L27.4352 2.19426L18.4109 11.2183L12.5414 5.34744C12.4971 5.30315 12.4446 5.26801 12.3868 5.24403C12.3289 5.22006 12.267 5.20772 12.2044 5.20772C12.1418 5.20772 12.0798 5.22006 12.0219 5.24403C11.9641 5.26801 11.9116 5.30315 11.8673 5.34744L0.139723 17.0737C0.0954289 17.1179 0.0602898 17.1705 0.036315 17.2283C0.0123402 17.2861 0 17.3481 0 17.4107C0 17.4733 0.0123402 17.5353 0.036315 17.5931C0.0602898 17.651 0.0954289 17.7035 0.139723 17.7477L1.83669 19.4447C1.8809 19.489 1.93342 19.5241 1.99122 19.5481C2.04903 19.5721 2.111 19.5844 2.17358 19.5844C2.23616 19.5844 2.29812 19.5721 2.35593 19.5481C2.41373 19.5241 2.46625 19.489 2.51046 19.4447L12.2031 9.75258L18.074 15.6232C18.1182 15.6675 18.1708 15.7026 18.2286 15.7266C18.2864 15.7506 18.3484 15.7629 18.411 15.7629C18.4736 15.7629 18.5356 15.7506 18.5935 15.7266C18.6513 15.7026 18.7038 15.6675 18.7481 15.6232L29.8052 4.56609L31.1859 5.9466C31.2525 6.01333 31.3374 6.05881 31.4299 6.07725C31.5224 6.0957 31.6182 6.08629 31.7053 6.05021C31.7925 6.01413 31.8669 5.95302 31.9193 5.8746C31.9716 5.79618 31.9995 5.70399 31.9994 5.60971V0.476599C31.9995 0.350317 31.9494 0.229174 31.8602 0.139802C31.771 0.0504299 31.6499 0.00014457 31.5236 1.85322e-07ZM31.047 4.45797L30.1431 3.55407C30.0521 3.46787 29.9315 3.41984 29.8061 3.41984C29.6807 3.41984 29.5601 3.46787 29.4691 3.55407L18.412 14.6112L12.5414 8.74164C12.4971 8.69735 12.4446 8.66221 12.3868 8.63824C12.3289 8.61426 12.267 8.60192 12.2044 8.60192C12.1418 8.60192 12.0798 8.61426 12.0219 8.63824C11.9641 8.66221 11.9116 8.69735 11.8673 8.74164L2.17358 18.4338L1.15066 17.4108L12.2031 6.35919L18.074 12.2293C18.1182 12.2736 18.1708 12.3087 18.2286 12.3327C18.2864 12.3566 18.3484 12.369 18.411 12.369C18.4736 12.369 18.5356 12.3566 18.5935 12.3327C18.6513 12.3087 18.7038 12.2736 18.7481 12.2293L28.4462 2.53115C28.4905 2.48691 28.5256 2.43438 28.5496 2.37655C28.5736 2.31872 28.5859 2.25673 28.5859 2.19413C28.5859 2.13152 28.5736 2.06954 28.5496 2.01171C28.5256 1.95388 28.4905 1.90134 28.4462 1.8571L27.5423 0.953198H31.047V4.45797Z" fill="#D98AFF"/>
<path d="M8.86665 21.9615H0.476599C0.350197 21.9615 0.228972 22.0117 0.139593 22.1011C0.050213 22.1905 0 22.3117 0 22.4381V31.5235C0 31.6499 0.050213 31.7711 0.139593 31.8605C0.228972 31.9499 0.350197 32.0001 0.476599 32.0001H8.86665C8.99305 32.0001 9.11428 31.9499 9.20366 31.8605C9.29304 31.7711 9.34325 31.6499 9.34325 31.5235V22.4381C9.34325 22.3117 9.29304 22.1905 9.20366 22.1011C9.11428 22.0117 8.99305 21.9615 8.86665 21.9615ZM8.39005 31.0469H0.953198V22.9147H8.39005V31.0469Z" fill="#D98AFF"/>
<path d="M20.1934 18.7231H11.8053C11.6789 18.7231 11.5576 18.7733 11.4683 18.8627C11.3789 18.9521 11.3287 19.0733 11.3287 19.1997V31.5232C11.3287 31.6496 11.3789 31.7708 11.4683 31.8602C11.5576 31.9496 11.6789 31.9998 11.8053 31.9998H20.1934C20.256 31.9998 20.318 31.9875 20.3758 31.9636C20.4337 31.9397 20.4862 31.9046 20.5305 31.8603C20.5748 31.816 20.6099 31.7635 20.6338 31.7056C20.6578 31.6478 20.6701 31.5858 20.67 31.5232V19.1989C20.6699 19.0726 20.6196 18.9516 20.5302 18.8623C20.4408 18.7731 20.3197 18.723 20.1934 18.7231ZM19.7168 31.0474H12.2808V19.6763H19.7176L19.7168 31.0474Z" fill="#D98AFF"/>
<path d="M31.5242 15.4825H23.1339C23.0075 15.4825 22.8863 15.5328 22.797 15.6221C22.7076 15.7115 22.6574 15.8327 22.6573 15.9591V31.5234C22.6573 31.6498 22.7075 31.7711 22.7969 31.8604C22.8863 31.9498 23.0075 32 23.1339 32H31.5242C31.5868 32.0001 31.6488 31.9878 31.7066 31.9638C31.7645 31.9399 31.817 31.9048 31.8613 31.8605C31.9056 31.8163 31.9407 31.7637 31.9646 31.7059C31.9885 31.648 32.0008 31.586 32.0008 31.5234V15.9602C32.001 15.8975 31.9887 15.8354 31.9648 15.7774C31.941 15.7195 31.9059 15.6668 31.8616 15.6224C31.8173 15.5781 31.7647 15.5429 31.7069 15.5189C31.649 15.4948 31.5869 15.4825 31.5242 15.4825ZM31.0476 31.0457H23.6105V16.4357H31.0476V31.0457Z" fill="#D98AFF"/>
</svg>
