<svg width="32" height="32" viewBox="0 0 32 32" fill="none" xmlns="http://www.w3.org/2000/svg">
<path d="M29.062 17.9395V13.7145C29.062 12.3163 28.1754 11.0551 26.5654 10.1632C23.5287 8.461 18.3597 8.51266 15.4683 10.5515V4.75755C15.4683 3.35936 14.5817 2.09821 12.9718 1.20635C10.188 -0.402084 5.28035 -0.402151 2.49655 1.20635C0.886568 2.09814 0 3.3593 0 4.75755V27.2377C0 28.6359 0.886568 29.897 2.49655 30.7889C5.28035 32.3974 10.188 32.3974 12.9718 30.7889C13.608 30.4364 14.1307 30.0261 14.531 29.5726C16.6093 31.7909 20.2384 32.2885 23.2792 31.8568C30.9691 33.3385 35.2008 22.9487 29.062 17.9395ZM13.5936 9.25353C13.5936 10.5583 11.0877 12.0177 7.73416 12.0177C4.3806 12.0177 1.87462 10.5583 1.87462 9.25353V7.92036C4.76496 9.9591 9.93596 10.011 12.9718 8.30868C13.193 8.18607 13.4001 8.05632 13.5936 7.92036V9.25353ZM2.49655 12.8048C5.28035 14.4133 10.1879 14.4132 12.9718 12.8048C13.193 12.6822 13.4001 12.5524 13.5936 12.4165V13.7496C13.5936 15.0543 11.0877 16.5137 7.73416 16.5137C4.3806 16.5137 1.87462 15.0544 1.87462 13.7496V12.4164C2.06814 12.5524 2.27528 12.6822 2.49655 12.8048ZM2.49655 17.3008C5.53355 19.0031 10.7021 18.9513 13.5936 16.9125V18.2456C13.5936 19.5504 11.0877 21.0097 7.73416 21.0097C4.3806 21.0097 1.87462 19.5504 1.87462 18.2456V16.9125C2.06814 17.0484 2.27528 17.1782 2.49655 17.3008ZM1.87462 21.4085C4.76496 23.4473 9.93596 23.4992 12.9718 21.7968C13.193 21.6742 13.4001 21.5445 13.5936 21.4085V22.7416C13.5936 24.0464 11.0877 25.5058 7.73416 25.5058C4.3806 25.5058 1.87462 24.0464 1.87462 22.7416V21.4085ZM15.4683 21.3857C16.0548 21.8035 16.7642 22.1583 17.5731 22.4314C17.4145 23.156 17.3523 23.9473 17.4009 24.7084C16.1374 24.1105 15.4683 23.3242 15.4683 22.7416V21.3857ZM18.2306 20.5542C16.4144 19.9698 15.4683 18.993 15.4683 18.2456V16.8774C15.6618 17.0134 15.8689 17.1431 16.0902 17.2657C17.1337 17.8438 18.4198 18.2295 19.8106 18.3925C19.1723 19.0058 18.6356 19.7373 18.2306 20.5542ZM21.3278 10.9504C24.6814 10.9504 27.1873 12.4097 27.1873 13.7145C27.1873 15.0193 24.6814 16.4786 21.3278 16.4786C17.9741 16.4786 15.4683 15.0193 15.4683 13.7145C15.4683 12.4097 17.9742 10.9504 21.3278 10.9504ZM7.7341 1.99342C11.0877 1.99342 13.5936 3.45274 13.5936 4.75748C13.5936 6.06229 11.0877 7.52162 7.7341 7.52162C4.38054 7.52162 1.87462 6.06229 1.87462 4.75755C1.87462 3.45274 4.38054 1.99342 7.7341 1.99342ZM7.7341 30.0017C4.38054 30.0017 1.87462 28.5425 1.87462 27.2377V25.9046C4.76496 27.9433 9.93596 27.9952 12.9718 26.2929C13.193 26.1703 13.4001 26.0405 13.5936 25.9046V27.2377C13.5936 28.5425 11.0877 30.0017 7.7341 30.0017ZM15.4683 27.2377V25.8511C16.1285 26.3257 16.9428 26.7256 17.8798 27.0205C18.2787 28.115 18.9024 29.0903 19.6899 29.8817C17.1903 29.5071 15.4683 28.3193 15.4683 27.2377ZM24.6943 30.0017C21.6974 30.0017 19.2593 27.3975 19.2593 24.1964C19.5578 16.4949 29.8318 16.497 30.1292 24.1965C30.1293 27.3975 27.6911 30.0017 24.6943 30.0017Z" fill="#D98AFF"/>
</svg>
