<svg width="32" height="23" viewBox="0 0 32 23" fill="none" xmlns="http://www.w3.org/2000/svg">
<path d="M6.33014 10.846C4.28307 10.846 2.6178 9.19584 2.6178 7.16818C2.6178 5.14027 4.28307 3.49011 6.33014 3.49011C8.37695 3.49011 10.042 5.14001 10.042 7.16818C10.042 9.19609 8.37695 10.846 6.33014 10.846ZM6.33014 4.52234C4.85211 4.52234 3.65003 5.7093 3.65003 7.16818C3.65003 8.62681 4.85211 9.81377 6.33014 9.81377C7.80766 9.81377 9.00975 8.62681 9.00975 7.16818C9.00975 5.7093 7.80766 4.52234 6.33014 4.52234Z" fill="#D98AFF"/>
<path d="M7.82311 21.0298H1.349C0.605073 21.0298 0 20.4285 0 19.6894V18.0012C0 14.5451 2.83938 11.7332 6.3297 11.7332C7.70239 11.7332 9.00906 12.1616 10.1073 12.9718C10.3366 13.1412 10.3855 13.4643 10.2162 13.6938C10.0468 13.9229 9.72401 13.9718 9.49443 13.8027C8.57485 13.1243 7.48063 12.7654 6.3297 12.7654C3.40867 12.7654 1.03223 15.1144 1.03223 18.0012V19.6894C1.03223 19.8592 1.17436 19.9976 1.349 19.9976H7.82336C8.10813 19.9976 8.33947 20.2287 8.33947 20.5137C8.33947 20.7985 8.10813 21.0298 7.82311 21.0298Z" fill="#D98AFF"/>
<path d="M30.6512 20.6389H24.1771C23.8924 20.6389 23.661 20.4078 23.661 20.1228C23.661 19.8381 23.8924 19.6067 24.1771 19.6067H30.6515C30.8261 19.6067 30.9683 19.4686 30.9683 19.2988V17.6106C30.9683 14.7233 28.5918 12.3748 25.6708 12.3748C24.4508 12.3748 23.2598 12.7949 22.3171 13.558C22.0958 13.7372 21.771 13.7032 21.5913 13.4816C21.4121 13.2601 21.4459 12.935 21.6679 12.7556C22.7936 11.8446 24.2152 11.3426 25.6708 11.3426C29.1609 11.3426 32.0002 14.1543 32.0002 17.6106V19.2988C32.0002 20.0376 31.3952 20.6389 30.6512 20.6389Z" fill="#D98AFF"/>
<path d="M25.6685 10.5915C23.6217 10.5915 21.9566 8.94161 21.9566 6.91369C21.9566 4.88578 23.6217 3.23563 25.6685 3.23563C27.7155 3.23563 29.3808 4.88553 29.3808 6.91369C29.3808 8.94186 27.7153 10.5915 25.6685 10.5915ZM25.6685 4.26785C24.1909 4.26785 22.9889 5.45481 22.9889 6.91369C22.9889 8.37257 24.1909 9.55928 25.6685 9.55928C27.1465 9.55928 28.3486 8.37257 28.3486 6.91369C28.3486 5.45481 27.1462 4.26785 25.6685 4.26785Z" fill="#D98AFF"/>
<path d="M23.0025 22.709H8.99288C8.06221 22.709 7.30518 21.9575 7.30518 21.0336V18.6592C7.30518 13.9139 11.2043 10.0533 15.9977 10.0533C20.7912 10.0533 24.6902 13.9139 24.6902 18.6592V21.0336C24.6902 21.9575 23.9332 22.709 23.0025 22.709ZM15.9977 11.0858C11.7738 11.0858 8.3374 14.4834 8.3374 18.6594V21.0339C8.3374 21.3884 8.6315 21.677 8.99288 21.677H23.0023C23.3637 21.677 23.6578 21.3884 23.6578 21.0339V18.6594C23.658 14.4834 20.2216 11.0858 15.9977 11.0858Z" fill="#D98AFF"/>
<path d="M15.8215 9.45033C13.1916 9.45033 11.0515 7.33068 11.0515 4.72491C11.0515 2.11939 13.1913 0 15.8215 0C18.452 0 20.5918 2.11965 20.5918 4.72516C20.5918 7.33093 18.4517 9.45033 15.8215 9.45033ZM15.8215 1.03223C13.7606 1.03223 12.0837 2.68893 12.0837 4.72516C12.0837 6.76165 13.7606 8.41835 15.8215 8.41835C17.8827 8.41835 19.5596 6.76165 19.5596 4.72516C19.5596 2.68893 17.8827 1.03223 15.8215 1.03223Z" fill="#D98AFF"/>
</svg>
