<svg width="34" height="34" viewBox="0 0 34 34" fill="none" xmlns="http://www.w3.org/2000/svg">
<path d="M32.6784 32.8588H1.32159C1.14394 32.8588 1 32.7148 1 32.5372V30.999C1 30.8213 1.14394 30.6774 1.32159 30.6774H32.6784C32.8561 30.6774 33 30.8213 33 30.999V32.5372C33 32.7148 32.8561 32.8588 32.6784 32.8588Z" stroke="#D98AFF" stroke-miterlimit="10" stroke-linecap="round" stroke-linejoin="round"/>
<path d="M4.64389 25.6125V23.4554C4.64389 23.2777 4.78783 23.1338 4.96548 23.1338H9.86903C10.0467 23.1338 10.1906 23.2777 10.1906 23.4554V30.6777H4.64389V27.8557" stroke="#D98AFF" stroke-miterlimit="10" stroke-linecap="round" stroke-linejoin="round"/>
<path d="M19.7727 30.6777H14.2259V18.1795C14.2259 18.002 14.3699 17.8579 14.5475 17.8579H19.4511C19.6287 17.8579 19.7727 18.002 19.7727 18.1795V30.6777Z" stroke="#D98AFF" stroke-miterlimit="10" stroke-linecap="round" stroke-linejoin="round"/>
<path d="M27.1994 11.7507H29.0339C29.2114 11.7507 29.3555 11.8947 29.3555 12.0723V30.6777H23.8086V12.0723C23.8086 11.8947 23.9527 11.7507 24.1302 11.7507H24.9311" stroke="#D98AFF" stroke-miterlimit="10" stroke-linecap="round" stroke-linejoin="round"/>
<path d="M8.04877 13.5324L8.80425 15.0632C8.85384 15.1636 8.94961 15.2333 9.0605 15.2493L10.7498 15.4948C11.3278 15.5788 11.5585 16.2891 11.1404 16.6968L9.91792 17.8884C9.83772 17.9665 9.80112 18.0791 9.8201 18.1895L10.1086 19.872C10.2074 20.4477 9.60315 20.8867 9.08623 20.6149L7.57526 19.8206C7.47609 19.7684 7.35761 19.7684 7.2585 19.8206L5.74754 20.6149C5.23061 20.8867 4.62641 20.4477 4.72514 19.872L5.01367 18.1895C5.03258 18.0791 4.99604 17.9665 4.91584 17.8884L3.69341 16.6968C3.27515 16.2891 3.50599 15.5788 4.08388 15.4948L5.77326 15.2493C5.88408 15.2333 5.97992 15.1636 6.02951 15.0632L6.78499 13.5324C7.04348 13.0086 7.79028 13.0086 8.04877 13.5324Z" stroke="#D98AFF" stroke-miterlimit="10" stroke-linecap="round" stroke-linejoin="round"/>
<path d="M17.6314 7.66374L18.3869 9.19458C18.4365 9.29498 18.5323 9.36457 18.6431 9.38072L20.3325 9.62622C20.9104 9.71015 21.1413 10.4204 20.723 10.8281L19.5006 12.0197C19.4204 12.0978 19.3838 12.2105 19.4027 12.3209L19.6913 14.0034C19.7901 14.579 19.1859 15.018 18.6689 14.7462L17.1579 13.9519C17.0588 13.8997 16.9403 13.8997 16.8411 13.9519L15.3302 14.7462C14.8133 15.018 14.209 14.579 14.3078 14.0034L14.5964 12.3209C14.6153 12.2105 14.5787 12.0978 14.4985 12.0197L13.276 10.8281C12.8579 10.4204 13.0886 9.71015 13.6666 9.62622L15.3559 9.38072C15.4668 9.36457 15.5626 9.29498 15.6121 9.19458L16.3677 7.66374C16.6261 7.14 17.3729 7.14 17.6314 7.66374Z" stroke="#D98AFF" stroke-miterlimit="10" stroke-linecap="round" stroke-linejoin="round"/>
<path d="M27.2141 1.39278L27.9696 2.92355C28.0192 3.02402 28.115 3.09361 28.2258 3.10969L29.9151 3.35525C30.4931 3.43919 30.7239 4.14945 30.3057 4.5571L29.0833 5.74872C29.003 5.82687 28.9665 5.93949 28.9854 6.04993L29.2739 7.73236C29.3727 8.30807 28.7685 8.74704 28.2515 8.47523L26.7406 7.6809C26.6415 7.62874 26.523 7.62874 26.4239 7.6809L24.9129 8.47523C24.3959 8.74704 23.7917 8.30807 23.8904 7.73236L24.179 6.04993C24.198 5.93949 24.1614 5.82687 24.0812 5.74872L22.8587 4.5571C22.4405 4.14945 22.6713 3.43919 23.2493 3.35525L24.9386 3.10969C25.0495 3.09361 25.1453 3.02402 25.1948 2.92355L25.9504 1.39278C26.2088 0.869037 26.9556 0.869037 27.2141 1.39278Z" stroke="#D98AFF" stroke-miterlimit="10" stroke-linecap="round" stroke-linejoin="round"/>
</svg>
