<svg width="32" height="32" viewBox="0 0 32 32" fill="none" xmlns="http://www.w3.org/2000/svg">
<path d="M28.964 16.0125C28.6836 15.5232 28.2791 15.1165 27.7913 14.8334C27.3035 14.5503 26.7497 14.4009 26.1857 14.4002H24.5711C23.9153 14.3986 23.2751 14.6002 22.7384 14.9771L22.3794 13.7203C22.3475 13.6088 22.2802 13.5108 22.1877 13.441C22.0952 13.3712 21.9824 13.3335 21.8665 13.3335C21.7506 13.3335 21.6379 13.3712 21.5454 13.441C21.4528 13.5108 21.3856 13.6088 21.3537 13.7203L20.3976 17.0668H17.0665C16.956 17.0668 16.8482 17.1012 16.7581 17.1651C16.6679 17.229 16.5998 17.3193 16.5633 17.4236C16.5267 17.5279 16.5234 17.641 16.5539 17.7472C16.5843 17.8535 16.6471 17.9476 16.7334 18.0166L19.1229 19.9282L18.1537 23.3203C18.1237 23.4252 18.1266 23.5369 18.1621 23.6401C18.1976 23.7434 18.2639 23.8332 18.3521 23.8976C18.4402 23.962 18.546 23.9977 18.6552 24C18.7643 24.0024 18.8715 23.9711 18.9624 23.9106L21.8665 21.9744L22.0347 22.0866C21.923 22.4454 21.8663 22.819 21.8665 23.1948V24.6387C21.8658 25.371 22.0826 26.0871 22.4895 26.696C22.7793 27.1298 22.9337 27.6399 22.9332 28.1616V28.2668H21.3332C21.1918 28.2668 21.0561 28.323 20.9561 28.423C20.8561 28.5231 20.7999 28.6587 20.7999 28.8002V32.0002H21.8665V29.3335H29.3332V32.0002H30.3999V28.8002C30.3999 28.6587 30.3437 28.5231 30.2437 28.423C30.1436 28.323 30.008 28.2668 29.8665 28.2668H28.8238C28.8963 27.5151 29.1354 26.7889 29.5239 26.1412C30.097 25.1858 30.3998 24.0927 30.3999 22.9785V20.1576C30.3994 19.088 30.1203 18.0368 29.5899 17.1078L28.964 16.0125ZM22.1624 20.8897C22.0748 20.8314 21.9718 20.8002 21.8665 20.8002C21.7612 20.8002 21.6583 20.8314 21.5707 20.8897L19.578 22.2183L20.246 19.88C20.2749 19.7789 20.2733 19.6716 20.2413 19.5714C20.2093 19.4712 20.1485 19.3827 20.0664 19.317L18.5869 18.1335H20.7999C20.9158 18.1335 21.0285 18.0957 21.121 18.026C21.2136 17.9562 21.2808 17.8581 21.3127 17.7467L21.8665 15.8082L22.4204 17.7467C22.4522 17.8581 22.5195 17.9562 22.612 18.026C22.7046 18.0957 22.8173 18.1335 22.9332 18.1335H23.4665V20.0585L22.9528 20.5722C22.786 20.7391 22.6353 20.9214 22.5028 21.1167L22.1624 20.8897ZM29.3332 22.9785C29.3331 23.8993 29.0829 24.8028 28.6092 25.5924C28.1215 26.4059 27.8286 27.3213 27.7534 28.2668H23.9999V28.1616C24.0006 27.4293 23.7838 26.7133 23.377 26.1043C23.0872 25.6705 22.9327 25.1604 22.9332 24.6387V23.1948C22.9323 22.8476 23.0002 22.5038 23.133 22.1831C23.2659 21.8624 23.461 21.5712 23.7071 21.3264L24.377 20.6565C24.4265 20.607 24.4658 20.5482 24.4926 20.4835C24.5194 20.4188 24.5332 20.3494 24.5332 20.2794V17.8716C24.5336 17.6606 24.6174 17.4584 24.7662 17.3088C24.915 17.1593 25.1169 17.0746 25.3278 17.0731H25.3317C25.5434 17.0732 25.7465 17.1573 25.8962 17.307C26.0459 17.4568 26.13 17.6598 26.13 17.8716V21.0179C26.13 21.1594 26.1862 21.2951 26.2863 21.3951L27.5675 22.6763L28.3218 21.922L27.1967 20.797V17.8716C27.1968 17.4487 27.0532 17.0383 26.7893 16.7078C26.5254 16.3773 26.1571 16.1463 25.7446 16.0527C25.3322 15.9591 24.9002 16.0085 24.5195 16.1928C24.1389 16.3771 23.8322 16.6853 23.6498 17.0668H23.3355L23.0581 16.0961L23.0626 16.0916C23.2603 15.8929 23.4953 15.7354 23.7543 15.6281C24.0132 15.5209 24.2908 15.4661 24.5711 15.4668H26.1857C26.5617 15.4673 26.9309 15.5669 27.2561 15.7556C27.5813 15.9443 27.851 16.2155 28.0379 16.5417L28.6638 17.637C29.1021 18.4048 29.3328 19.2736 29.3332 20.1576V22.9785Z" fill="#D98AFF"/>
<path d="M19.1993 10.6667C19.2819 10.6667 19.3633 10.6475 19.4372 10.6107C19.5111 10.5739 19.5754 10.5204 19.6252 10.4545C19.6749 10.3886 19.7086 10.3121 19.7237 10.2309C19.7388 10.1497 19.7349 10.0662 19.7122 9.98678L18.743 6.59473L21.1325 4.68314C21.2188 4.6141 21.2815 4.51996 21.312 4.41372C21.3425 4.30749 21.3392 4.19442 21.3026 4.09014C21.266 3.98585 21.198 3.8955 21.1078 3.83159C21.0176 3.76767 20.9099 3.73334 20.7993 3.73333H17.4683L16.5122 0.386784C16.4803 0.275351 16.413 0.177324 16.3205 0.107537C16.228 0.0377497 16.1152 0 15.9993 0C15.8835 0 15.7707 0.0377497 15.6782 0.107537C15.5857 0.177324 15.5184 0.275351 15.4865 0.386784L14.5304 3.73333H11.1993C11.0888 3.73334 10.981 3.76767 10.8909 3.83159C10.8007 3.8955 10.7327 3.98585 10.6961 4.09014C10.6595 4.19442 10.6562 4.30749 10.6867 4.41372C10.7172 4.51996 10.7799 4.6141 10.8662 4.68314L13.2557 6.59473L12.2865 9.98678C12.2565 10.0917 12.2595 10.2034 12.2949 10.3066C12.3304 10.4099 12.3967 10.4997 12.4849 10.5641C12.573 10.6285 12.6788 10.6642 12.788 10.6666C12.8971 10.6689 13.0044 10.6376 13.0952 10.5771L15.9993 8.64102L18.9035 10.5771C18.9911 10.6355 19.094 10.6667 19.1993 10.6667ZM16.2952 7.55625C16.2076 7.49784 16.1046 7.46667 15.9993 7.46667C15.8941 7.46667 15.7911 7.49784 15.7035 7.55625L13.7108 8.88477L14.3788 6.54655C14.4077 6.44544 14.4061 6.33806 14.3741 6.23788C14.3421 6.13771 14.2813 6.04922 14.1992 5.98353L12.7198 4.8H14.9327C15.0486 4.79999 15.1613 4.76224 15.2538 4.69246C15.3464 4.62267 15.4137 4.52465 15.4455 4.41322L15.9993 2.47467L16.5532 4.41322C16.585 4.52465 16.6523 4.62267 16.7449 4.69246C16.8374 4.76224 16.9501 4.79999 17.066 4.8H19.2789L17.7995 5.98353C17.7174 6.04922 17.6565 6.13771 17.6246 6.23788C17.5926 6.33806 17.591 6.44544 17.6199 6.54655L18.2879 8.88477L16.2952 7.55625Z" fill="#D98AFF"/>
<path d="M8.2375 12.1771C8.32833 12.2376 8.43555 12.2688 8.54469 12.2665C8.65383 12.2642 8.75963 12.2285 8.84781 12.1641C8.93598 12.0997 9.00228 12.0099 9.03775 11.9066C9.07322 11.8034 9.07615 11.6917 9.04616 11.5868L8.07698 8.1947L10.4665 6.28311C10.5528 6.21407 10.6155 6.11993 10.646 6.0137C10.6765 5.90747 10.6732 5.7944 10.6366 5.69011C10.6 5.58583 10.5319 5.49548 10.4418 5.43156C10.3516 5.36764 10.2438 5.33331 10.1333 5.33331H6.80228L5.84616 1.98676C5.81431 1.87533 5.74703 1.7773 5.6545 1.70751C5.56197 1.63773 5.44923 1.59998 5.33333 1.59998C5.21743 1.59998 5.10469 1.63773 5.01216 1.70751C4.91964 1.7773 4.85236 1.87533 4.82051 1.98676L3.86439 5.33331H0.533331C0.422816 5.33331 0.315031 5.36764 0.224875 5.43156C0.134719 5.49548 0.0666458 5.58583 0.0300648 5.69011C-0.00651615 5.7944 -0.00979784 5.90747 0.0206733 6.0137C0.0511444 6.11993 0.113863 6.21407 0.20016 6.28311L2.58968 8.1947L1.62051 11.5868C1.59051 11.6917 1.59344 11.8034 1.62891 11.9066C1.66438 12.0099 1.73068 12.0997 1.81885 12.1641C1.90703 12.2285 2.01283 12.2642 2.12197 12.2665C2.23111 12.2688 2.33834 12.2376 2.42916 12.1771L5.33333 10.241L8.2375 12.1771ZM3.04476 10.4847L3.71282 8.14653C3.74171 8.04542 3.74006 7.93803 3.7081 7.83786C3.67613 7.73769 3.61527 7.64919 3.53317 7.5835L2.05374 6.39998H4.26666C4.38256 6.39997 4.4953 6.36222 4.58782 6.29243C4.68035 6.22264 4.74763 6.12462 4.77949 6.01319L5.33333 4.07465L5.88717 6.01319C5.91903 6.12462 5.98631 6.22264 6.07884 6.29243C6.17136 6.36222 6.2841 6.39997 6.4 6.39998H8.61292L7.13349 7.5835C7.05139 7.64919 6.99053 7.73769 6.95856 7.83786C6.9266 7.93803 6.92496 8.04542 6.95384 8.14653L7.6219 10.4847L5.62916 9.15623C5.54156 9.09781 5.43862 9.06664 5.33333 9.06664C5.22804 9.06664 5.1251 9.09781 5.0375 9.15623L3.04476 10.4847Z" fill="#D98AFF"/>
<path d="M31.9706 5.6902C31.934 5.58592 31.8659 5.49558 31.7758 5.43166C31.6856 5.36775 31.5778 5.33342 31.4673 5.33343H28.1363L27.1801 1.98688C27.1483 1.87545 27.081 1.77742 26.9885 1.70763C26.896 1.63785 26.7832 1.6001 26.6673 1.6001C26.5514 1.6001 26.4387 1.63785 26.3461 1.70763C26.2536 1.77742 26.1863 1.87545 26.1545 1.98688L25.1984 5.33343H21.8673C21.7568 5.33343 21.649 5.36777 21.5589 5.43168C21.4687 5.4956 21.4006 5.58595 21.3641 5.69023C21.3275 5.79452 21.3242 5.90759 21.3547 6.01382C21.3851 6.12005 21.4478 6.2142 21.5341 6.28324L23.9237 8.19482L22.9545 11.5869C22.9245 11.6918 22.9274 11.8035 22.9629 11.9067C22.9984 12.01 23.0647 12.0998 23.1528 12.1642C23.241 12.2286 23.3468 12.2643 23.456 12.2666C23.5651 12.269 23.6723 12.2377 23.7631 12.1772L26.6673 10.2411L29.5715 12.1772C29.6623 12.2377 29.7695 12.269 29.8787 12.2666C29.9878 12.2643 30.0936 12.2286 30.1818 12.1642C30.27 12.0998 30.3363 12.01 30.3717 11.9067C30.4072 11.8035 30.4101 11.6918 30.3801 11.5869L29.411 8.19482L31.8005 6.28324C31.8868 6.21419 31.9495 6.12005 31.98 6.01381C32.0104 5.90757 32.0072 5.79449 31.9706 5.6902ZM28.4675 7.58363C28.3854 7.64932 28.3245 7.73781 28.2926 7.83798C28.2606 7.93816 28.2589 8.04554 28.2878 8.14665L28.9559 10.4849L26.9631 9.15635C26.8755 9.09794 26.7726 9.06676 26.6673 9.06676C26.562 9.06676 26.4591 9.09794 26.3715 9.15635L24.3787 10.4849L25.0468 8.14665C25.0757 8.04554 25.074 7.93816 25.0421 7.83798C25.0101 7.73781 24.9493 7.64932 24.8672 7.58363L23.3877 6.4001H25.6006C25.7165 6.40009 25.8293 6.36234 25.9218 6.29255C26.0143 6.22277 26.0816 6.12474 26.1135 6.01331L26.6673 4.07477L27.2212 6.01331C27.253 6.12474 27.3203 6.22277 27.4128 6.29255C27.5053 6.36234 27.6181 6.40009 27.734 6.4001H29.9469L28.4675 7.58363Z" fill="#D98AFF"/>
<path d="M14.9322 17.0668H11.6011L10.645 13.7203C10.6131 13.6088 10.5459 13.5108 10.4533 13.441C10.3608 13.3712 10.2481 13.3335 10.1322 13.3335C10.0163 13.3335 9.90352 13.3712 9.81099 13.441C9.71846 13.5108 9.65118 13.6088 9.61933 13.7203L8.66321 17.0668H5.33216C5.22164 17.0668 5.11386 17.1012 5.0237 17.1651C4.93355 17.229 4.86547 17.3193 4.82889 17.4236C4.79231 17.5279 4.78903 17.641 4.8195 17.7472C4.84997 17.8535 4.91269 17.9476 4.99899 18.0166L7.38851 19.9282L6.41933 23.3203C6.38933 23.4252 6.39227 23.5369 6.42774 23.6401C6.46321 23.7434 6.52951 23.8332 6.61768 23.8976C6.70586 23.962 6.81166 23.9977 6.9208 24C7.02994 24.0024 7.13716 23.9711 7.22799 23.9106L10.1322 21.9745L13.0363 23.9106C13.1272 23.9711 13.2344 24.0024 13.3435 24C13.4527 23.9977 13.5585 23.962 13.6466 23.8976C13.7348 23.8332 13.8011 23.7434 13.8366 23.6401C13.872 23.5369 13.875 23.4252 13.845 23.3203L12.8758 19.9282L15.2653 18.0166C15.3516 17.9476 15.4143 17.8535 15.4448 17.7472C15.4753 17.641 15.472 17.5279 15.4354 17.4236C15.3988 17.3193 15.3308 17.229 15.2406 17.1651C15.1505 17.1012 15.0427 17.0668 14.9322 17.0668ZM11.9323 19.317C11.8502 19.3827 11.7894 19.4712 11.7574 19.5714C11.7254 19.6716 11.7238 19.7789 11.7527 19.88L12.4207 22.2183L10.428 20.8897C10.3404 20.8313 10.2375 20.8002 10.1322 20.8002C10.0269 20.8002 9.92393 20.8313 9.83633 20.8897L7.84358 22.2183L8.51165 19.88C8.54053 19.7789 8.53889 19.6716 8.50692 19.5714C8.47496 19.4712 8.4141 19.3827 8.332 19.317L6.85257 18.1335H9.06549C9.18139 18.1335 9.29413 18.0957 9.38665 18.026C9.47918 17.9562 9.54646 17.8581 9.57832 17.7467L10.1322 15.8082L10.686 17.7467C10.7179 17.8581 10.7851 17.9562 10.8777 18.026C10.9702 18.0957 11.0829 18.1335 11.1988 18.1335H13.4117L11.9323 19.317Z" fill="#D98AFF"/>
</svg>
