<svg width="27" height="24" viewBox="0 0 27 24" fill="none" xmlns="http://www.w3.org/2000/svg">
<path d="M26.2255 20.7653H24.2085V6.74454C24.2085 6.41901 23.8834 6.15408 23.4839 6.15408H21.0153C20.6155 6.15408 20.2904 6.41901 20.2904 6.74454V8.49513C20.2904 8.68185 20.4761 8.83333 20.7055 8.83333C20.9349 8.83333 21.1206 8.68185 21.1206 8.49513V6.8305H23.3784V20.7653H21.1206V10.0687C21.1206 9.88196 20.9349 9.73047 20.7055 9.73047C20.4761 9.73047 20.2904 9.88196 20.2904 10.0687V20.7653H18.3912V10.449C18.3912 10.1235 18.0661 9.85853 17.6664 9.85853H15.1977C14.798 9.85853 14.4729 10.1235 14.4729 10.449V20.7653H12.5737V14.1728C12.5737 13.8471 12.2485 13.5822 11.8488 13.5822H9.3802C8.98047 13.5822 8.65533 13.8471 8.65533 14.1728V20.7653H6.75615V17.887C6.75615 17.5612 6.43101 17.2963 6.03128 17.2963H3.56266C3.16294 17.2963 2.83779 17.5612 2.83779 17.887V18.5822C2.83779 18.7689 3.02371 18.9204 3.25287 18.9204C3.48203 18.9204 3.66795 18.7689 3.66795 18.5822V17.9727H5.926V20.7653H3.66795V20.1558C3.66795 19.9691 3.48203 19.8176 3.25287 19.8176C3.02371 19.8176 2.83779 19.9691 2.83779 20.1558V20.7653H0.821005C0.39404 20.7653 0.0466309 21.0483 0.0466309 21.3962V22.4575C0.0466309 22.8054 0.39404 23.0885 0.821005 23.0885H26.2255C26.6525 23.0885 26.9999 22.8054 26.9999 22.4575V21.3962C26.9999 21.0483 26.6525 20.7653 26.2255 20.7653ZM15.303 10.535H17.5611V20.7653H15.303V10.535ZM9.48548 14.2586H11.7435V20.7653H9.48548V14.2586ZM26.1698 22.4121H0.876781V21.4417H26.1698V22.4121Z" fill="#D98AFF"/>
<path d="M1.18278 15.0398C1.3127 15.0398 1.44458 15.0222 1.57364 14.985C2.64851 14.675 4.87586 13.939 7.71675 12.493C10.0822 11.2892 12.4 9.83489 14.6061 8.17062C16.333 6.86763 18.0115 5.41615 19.6022 3.85052L20.2842 4.80156C20.417 4.98687 20.6777 5.07547 20.9328 5.02228C21.1879 4.9689 21.3641 4.78905 21.371 4.5745L21.5048 0.488509C21.5102 0.320638 21.4099 0.16633 21.2365 0.0757884C21.0629 -0.0149292 20.8489 -0.0247937 20.6641 0.0493658C20.6641 0.0493658 20.6641 0.0493658 20.6639 0.0493658L16.1637 1.85491C15.9275 1.94986 15.8003 2.15525 15.8475 2.36645C15.8946 2.57748 16.1021 2.73355 16.3644 2.75434L17.5493 2.84928C16.1008 4.25655 14.5806 5.56341 13.0221 6.74063C10.9299 8.32105 8.73563 9.70084 6.50028 10.8412C3.72836 12.2556 1.58207 12.9418 0.788024 13.1712C0.488824 13.2577 0.249291 13.4342 0.113743 13.6681C-0.0215886 13.9019 -0.0367215 14.164 0.0713709 14.4065C0.244751 14.7962 0.699821 15.04 1.18278 15.0398ZM0.864554 13.957C0.90498 13.8872 0.976321 13.8346 1.06539 13.8088C1.88538 13.5719 4.09933 12.8645 6.94086 11.4146C9.22032 10.2517 11.4563 8.84598 13.5866 7.23684C15.352 5.90321 17.0683 4.40681 18.6881 2.78869C18.7848 2.69215 18.8086 2.56004 18.7498 2.44502C18.6909 2.32981 18.5593 2.25054 18.4071 2.23821L17.3071 2.15014L20.6641 0.803291L20.5642 3.85123L20.0179 3.0892C19.9491 2.99337 19.827 2.93119 19.6912 2.92274C19.5557 2.91428 19.423 2.96061 19.3371 3.04692C17.6595 4.73216 15.8782 6.28915 14.0421 7.67422C11.8742 9.30978 9.59821 10.738 7.27703 11.9195C4.50316 13.3311 2.33958 14.0467 1.29671 14.3473C1.11641 14.3993 0.91687 14.3223 0.851799 14.1759C0.819803 14.1041 0.824343 14.0264 0.864554 13.957Z" fill="#D98AFF"/>
</svg>
